<svg width="1223" height="206" viewBox="0 0 1223 206" fill="none" xmlns="http://www.w3.org/2000/svg">
<path d="M288.969 161V52.5126H355.267V73.0047H309.461V96.5103H346.226V117.002H309.461V161H288.969ZM394.635 163.411C388.256 163.411 383.058 162.331 379.04 160.171C375.022 158.012 371.883 155.274 369.623 151.959C367.413 148.644 365.831 145.204 364.876 141.638C363.922 138.022 363.344 134.732 363.143 131.769C362.943 128.805 362.842 126.646 362.842 125.29V79.6345H383.636V118.057C383.636 119.915 383.736 122.301 383.937 125.214C384.138 128.077 384.766 130.965 385.82 133.878C386.875 136.791 388.583 139.227 390.943 141.186C393.354 143.145 396.744 144.124 401.114 144.124C402.872 144.124 404.755 143.848 406.764 143.295C408.773 142.743 410.657 141.688 412.415 140.131C414.173 138.524 415.604 136.189 416.709 133.125C417.864 130.011 418.442 125.943 418.442 120.92L430.195 126.495C430.195 132.924 428.889 138.951 426.277 144.576C423.665 150.201 419.723 154.747 414.449 158.212C409.226 161.678 402.621 163.411 394.635 163.411ZM421.003 161V134.029H418.442V79.6345H439.085V161H421.003ZM511.069 161V122.577C511.069 120.719 510.969 118.358 510.768 115.496C510.567 112.582 509.939 109.669 508.885 106.756C507.83 103.843 506.097 101.407 503.686 99.4485C501.326 97.4897 497.96 96.5103 493.591 96.5103C491.833 96.5103 489.949 96.7865 487.94 97.339C485.931 97.8915 484.048 98.9713 482.29 100.579C480.532 102.136 479.076 104.446 477.92 107.51C476.815 110.573 476.263 114.642 476.263 119.715L464.51 114.139C464.51 107.711 465.816 101.684 468.428 96.0582C471.04 90.433 474.957 85.8876 480.181 82.422C485.454 78.9564 492.084 77.2236 500.07 77.2236C506.449 77.2236 511.647 78.3035 515.665 80.4632C519.683 82.6229 522.797 85.3602 525.007 88.6751C527.267 91.99 528.874 95.4555 529.829 99.0718C530.783 102.638 531.361 105.902 531.561 108.866C531.762 111.829 531.863 113.989 531.863 115.345V161H511.069ZM455.47 161V79.6345H473.702V106.606H476.263V161H455.47ZM546.892 161V52.5126H592.697C593.752 52.5126 595.158 52.5628 596.916 52.6633C598.725 52.7135 600.332 52.8642 601.738 53.1153C608.217 54.1198 613.516 56.2544 617.634 59.5191C621.803 62.7838 624.867 66.9023 626.826 71.8746C628.785 76.7967 629.764 82.2964 629.764 88.3737C629.764 94.451 628.759 99.9758 626.75 104.948C624.792 109.87 621.728 113.964 617.559 117.228C613.441 120.493 608.167 122.628 601.738 123.632C600.332 123.833 598.725 123.984 596.916 124.084C595.108 124.185 593.702 124.235 592.697 124.235H567.384V161H546.892ZM567.384 105.099H591.793C592.848 105.099 594.003 105.049 595.259 104.948C596.515 104.848 597.67 104.647 598.725 104.345C601.487 103.592 603.622 102.336 605.128 100.579C606.635 98.7704 607.665 96.7865 608.217 94.6268C608.82 92.4169 609.121 90.3325 609.121 88.3737C609.121 86.4149 608.82 84.3557 608.217 82.196C607.665 79.986 606.635 78.0021 605.128 76.2442C603.622 74.4361 601.487 73.1554 598.725 72.402C597.67 72.1006 596.515 71.8997 595.259 71.7993C594.003 71.6988 592.848 71.6486 591.793 71.6486H567.384V105.099ZM661.5 163.26C655.674 163.26 650.727 162.155 646.659 159.945C642.641 157.685 639.577 154.697 637.467 150.98C635.408 147.213 634.378 143.069 634.378 138.549C634.378 134.782 634.956 131.342 636.111 128.228C637.266 125.114 639.125 122.376 641.686 120.016C644.298 117.605 647.789 115.596 652.158 113.989C655.172 112.884 658.763 111.904 662.932 111.051C667.1 110.197 671.822 109.393 677.095 108.64C682.369 107.836 688.17 106.957 694.499 106.003L687.115 110.071C687.115 105.25 685.96 101.709 683.65 99.4485C681.339 97.1883 677.472 96.0582 672.048 96.0582C669.034 96.0582 665.895 96.7865 662.63 98.2431C659.366 99.6996 657.08 102.286 655.775 106.003L637.241 100.127C639.301 93.3963 643.168 87.9217 648.843 83.7027C654.519 79.4838 662.254 77.3743 672.048 77.3743C679.23 77.3743 685.609 78.4793 691.184 80.6892C696.759 82.8991 700.978 86.7163 703.84 92.1406C705.448 95.1542 706.402 98.1677 706.703 101.181C707.005 104.195 707.155 107.56 707.155 111.277V161H689.225V144.275L691.786 147.74C687.819 153.215 683.524 157.183 678.903 159.644C674.333 162.055 668.532 163.26 661.5 163.26ZM665.87 147.138C669.637 147.138 672.801 146.485 675.363 145.179C677.974 143.823 680.034 142.291 681.54 140.583C683.097 138.876 684.152 137.444 684.705 136.289C685.759 134.079 686.362 131.518 686.513 128.604C686.714 125.641 686.814 123.18 686.814 121.221L692.841 122.728C686.764 123.733 681.842 124.586 678.075 125.29C674.308 125.943 671.269 126.545 668.959 127.098C666.648 127.65 664.614 128.253 662.856 128.906C660.847 129.709 659.215 130.588 657.959 131.543C656.754 132.447 655.85 133.451 655.247 134.556C654.695 135.661 654.418 136.892 654.418 138.248C654.418 140.106 654.87 141.713 655.775 143.069C656.729 144.375 658.06 145.38 659.767 146.083C661.475 146.786 663.509 147.138 665.87 147.138ZM728.059 197.162L743.73 154.069L744.031 166.726L708.622 79.6345H729.868L753.675 141.261H748.853L772.509 79.6345H793.001L747.045 197.162H728.059ZM869.998 163.26C859.15 163.26 849.908 160.9 842.274 156.178C834.639 151.407 828.788 144.777 824.72 136.289C820.702 127.801 818.693 117.957 818.693 106.756C818.693 95.556 820.702 85.7118 824.72 77.2236C828.788 68.7355 834.639 62.1308 842.274 57.4096C849.908 52.6382 859.15 50.2525 869.998 50.2525C882.504 50.2525 892.851 53.4167 901.038 59.7451C909.275 66.0735 915 74.5868 918.215 85.2849L902.243 89.5791C900.134 81.9951 896.367 76.0433 890.942 71.7239C885.568 67.4045 878.587 65.2448 869.998 65.2448C862.314 65.2448 855.91 66.9776 850.787 70.4432C845.664 73.9087 841.797 78.7555 839.185 84.9835C836.623 91.2115 835.343 98.4691 835.343 106.756C835.292 115.044 836.548 122.301 839.11 128.529C841.721 134.757 845.589 139.604 850.712 143.069C855.885 146.535 862.314 148.268 869.998 148.268C878.587 148.268 885.568 146.108 890.942 141.789C896.367 137.419 900.134 131.467 902.243 123.933L918.215 128.228C915 138.926 909.275 147.439 901.038 153.768C892.851 160.096 882.504 163.26 869.998 163.26ZM931.771 161V50.2525H947.517V161H931.771ZM1000.95 163.26C992.818 163.26 985.761 161.427 979.784 157.76C973.807 154.094 969.186 149.046 965.922 142.617C962.707 136.138 961.1 128.68 961.1 120.242C961.1 111.754 962.758 104.295 966.072 97.8664C969.387 91.3873 974.033 86.3647 980.01 82.7987C985.987 79.1824 992.968 77.3743 1000.95 77.3743C1009.09 77.3743 1016.15 79.2075 1022.12 82.874C1028.1 86.5405 1032.72 91.5882 1035.99 98.017C1039.25 104.446 1040.88 111.854 1040.88 120.242C1040.88 128.73 1039.23 136.214 1035.91 142.693C1032.65 149.122 1028.03 154.169 1022.05 157.836C1016.07 161.452 1009.04 163.26 1000.95 163.26ZM1000.95 148.418C1008.74 148.418 1014.54 145.807 1018.36 140.583C1022.22 135.31 1024.16 128.529 1024.16 120.242C1024.16 111.754 1022.2 104.973 1018.28 99.9005C1014.41 94.7775 1008.64 92.216 1000.95 92.216C995.68 92.216 991.336 93.4214 987.921 95.8322C984.505 98.1928 981.969 101.483 980.311 105.702C978.654 109.87 977.825 114.717 977.825 120.242C977.825 128.78 979.784 135.611 983.702 140.734C987.619 145.857 993.37 148.418 1000.95 148.418ZM1083.58 163.185C1077.96 163.185 1073.24 162.281 1069.42 160.473C1065.6 158.665 1062.49 156.304 1060.08 153.391C1057.72 150.428 1055.91 147.213 1054.65 143.747C1053.4 140.282 1052.54 136.892 1052.09 133.577C1051.64 130.262 1051.41 127.349 1051.41 124.838V79.6345H1067.38V119.639C1067.38 122.803 1067.63 126.068 1068.14 129.433C1068.69 132.748 1069.69 135.837 1071.15 138.7C1072.66 141.563 1074.74 143.873 1077.4 145.631C1080.12 147.389 1083.63 148.268 1087.95 148.268C1090.76 148.268 1093.43 147.816 1095.94 146.912C1098.45 145.957 1100.63 144.451 1102.49 142.391C1104.4 140.332 1105.88 137.62 1106.94 134.255C1108.04 130.89 1108.59 126.796 1108.59 121.975L1118.39 125.666C1118.39 133.049 1117.01 139.579 1114.24 145.254C1111.48 150.88 1107.51 155.274 1102.34 158.438C1097.17 161.603 1090.91 163.185 1083.58 163.185ZM1110.48 161V137.494H1108.59V79.6345H1124.49V161H1110.48ZM1173.42 163.26C1165.84 163.26 1159.28 161.377 1153.76 157.61C1148.28 153.843 1144.04 148.72 1141.02 142.241C1138.06 135.711 1136.58 128.378 1136.58 120.242C1136.58 112.055 1138.09 104.747 1141.1 98.3184C1144.11 91.8393 1148.38 86.7414 1153.91 83.0247C1159.48 79.2578 1166.09 77.3743 1173.72 77.3743C1181.41 77.3743 1187.86 79.2578 1193.08 83.0247C1198.36 86.7414 1202.33 91.8393 1204.99 98.3184C1207.7 104.798 1209.06 112.105 1209.06 120.242C1209.06 128.378 1207.7 135.686 1204.99 142.165C1202.28 148.644 1198.28 153.793 1193.01 157.61C1187.73 161.377 1181.21 163.26 1173.42 163.26ZM1175.61 149.021C1180.78 149.021 1185 147.791 1188.26 145.33C1191.53 142.869 1193.91 139.478 1195.42 135.159C1196.93 130.84 1197.68 125.867 1197.68 120.242C1197.68 114.617 1196.9 109.644 1195.34 105.325C1193.84 101.005 1191.48 97.6404 1188.26 95.2295C1185.1 92.8187 1181.05 91.6133 1176.13 91.6133C1170.91 91.6133 1166.61 92.894 1163.25 95.4555C1159.88 98.017 1157.37 101.458 1155.72 105.777C1154.11 110.096 1153.31 114.918 1153.31 120.242C1153.31 125.616 1154.11 130.488 1155.72 134.858C1157.37 139.177 1159.83 142.617 1163.1 145.179C1166.41 147.74 1170.58 149.021 1175.61 149.021ZM1197.68 161V102.462H1195.87V52.5126H1211.69V161H1197.68Z" fill="#101216"/>
<path d="M91.9277 8.6766C109.973 -0.104428 128.394 -0.935575 147.191 6.18343C163.58 13.2917 175.422 24.9959 182.718 41.2948C182.995 41.8485 182.995 42.4031 182.718 42.9569C174.947 50.6584 167.259 58.4142 159.656 66.2254C159.431 66.2504 159.293 66.3886 159.241 66.6405C171.565 67.056 183.892 67.1948 196.222 67.0565C219.454 69.1623 235.037 81.2119 242.968 103.206C248.173 126.24 241.455 144.868 222.814 159.093C216.619 163.19 209.833 165.823 202.455 166.988C175.526 167.467 148.586 167.674 121.637 167.611C95.8055 167.542 69.9747 167.473 44.1435 167.403C24.6613 164.258 11.0182 153.662 3.21483 135.616C-4.60287 110.85 1.8375 90.6979 22.5361 75.159C30.2169 70.0827 38.6663 67.3818 47.8828 67.0565H57.0244V61.6551C59.6663 38.0073 71.3007 20.3476 91.9277 8.6766ZM158.408 67.4774C144.018 81.6596 129.683 95.9256 115.402 110.275C114.214 112.098 113.244 114.038 112.493 116.093C111.5 124.29 114.755 130.038 122.258 133.337C134.287 133.946 146.337 134.154 158.408 133.96C158.339 145.041 158.407 156.121 158.615 167.201C172.333 153.414 186.114 139.702 199.959 126.065C202.058 123.809 203.512 121.177 204.322 118.171C205.094 108.493 200.731 102.675 191.233 100.719H158.408V67.4774Z" fill="#2724D5"/>
</svg>
