<svg width="245" height="167" viewBox="0 0 245 167" fill="none" xmlns="http://www.w3.org/2000/svg">
<path d="M91.9277 7.27427C109.973 -1.50679 128.394 -2.33791 147.191 4.7811C163.579 11.8893 175.422 23.5927 182.718 39.8915C182.995 40.4452 182.995 40.9998 182.718 41.5536C174.947 49.2551 167.259 57.0118 159.656 64.8231C159.431 64.8481 159.293 64.9862 159.241 65.2381C171.565 65.6536 183.892 65.7925 196.222 65.6541C219.454 67.76 235.037 79.8095 242.968 101.804C248.173 124.837 241.455 143.466 222.814 157.69C216.619 161.788 209.833 164.42 202.455 165.586C175.526 166.064 148.586 166.272 121.637 166.209C95.8055 166.139 69.9748 166.07 44.1436 166.001C24.6613 162.856 11.0182 152.26 3.21486 134.214C-4.60291 109.448 1.83754 89.2956 22.5361 73.7567C30.2169 68.6803 38.6663 65.9795 47.8828 65.6541H57.0244V60.2518C59.6664 36.6042 71.3008 18.9452 91.9277 7.27427ZM158.408 66.075C144.018 80.2573 129.683 94.5232 115.402 108.873C114.214 110.696 113.244 112.635 112.493 114.69C111.5 122.888 114.755 128.636 122.258 131.934C134.287 132.544 146.337 132.752 158.408 132.557C158.339 143.639 158.407 154.719 158.615 165.799C172.333 152.012 186.114 138.3 199.959 124.663C202.058 122.406 203.512 119.775 204.322 116.768C205.094 107.09 200.731 101.273 191.233 99.3163H158.408V66.075Z" fill="#2724D5"/>
</svg>
