<svg width="556" height="480" viewBox="0 0 556 480" fill="none" xmlns="http://www.w3.org/2000/svg">
<path d="M291.238 479.909C256.593 479.519 222.937 475.063 190.286 464.219C172.571 458.335 155.851 450.444 140.8 439.262C135.943 435.654 136.075 433.515 141.262 430.239C155.233 421.414 165.599 409.51 171.922 394.178C172.286 393.294 172.669 392.404 172.907 391.482C173.357 389.732 173.872 387.867 172.087 386.541C170.372 385.267 168.878 386.384 167.507 387.329C159.476 392.862 151.002 397.58 141.623 400.345C100.445 412.485 64.3428 403.637 34.3947 372.848C13.8649 351.741 3.25005 325.57 0.704874 296.47C-3.86467 244.225 13.8811 199.973 51.093 163.592C70.8117 144.314 94.9523 133.124 122.251 128.923C127.33 128.142 130.115 125.506 131.422 120.189C143.417 71.4152 172.651 36.8106 217.848 15.4914C237.553 6.19656 258.392 1.32013 280.177 0.238185C321.632 -1.8206 358.824 9.40867 390.736 36.2035C414.825 56.4296 430.329 82.0208 435.988 113.229C437.198 119.897 438.854 121.472 445.557 122.928C499.569 134.665 533.969 167.954 550.277 220.014C558.981 247.8 556.879 276.071 549.84 304.039C540.875 339.656 523.391 370.594 498.201 397.202C458.273 439.376 409.022 463.979 352.257 474.38C332.196 478.056 311.963 479.663 291.238 479.909ZM250.097 150.918C245.04 157.334 241.583 164.611 239.983 172.532C236.373 190.404 239.957 198.113 253.477 206.898C255.384 208.137 257.311 209.346 259.237 210.557C262.386 212.537 265.406 214.676 268.072 217.296C273.723 222.849 275.026 229.861 271.625 237.014C269.846 240.753 267.118 243.727 264.014 246.437C258.121 251.581 252.316 256.874 250.484 264.952C248.023 275.799 251.169 285.613 256.746 294.724C268.904 314.585 301.866 323.54 319.524 295.25C326.885 283.457 330.417 270.493 331.171 256.85C332.76 228.086 326.828 200.703 314.783 174.611C309.92 164.079 303.723 154.471 294.738 146.896C281.396 135.648 262.804 134.67 250.097 150.918ZM448.001 271.917C448.835 270.065 449.763 268.25 450.49 266.357C455.282 253.866 455.656 240.936 454.245 227.834C451.821 205.333 445.566 184.001 434.353 164.285C427.581 152.375 419.11 141.92 406.577 135.523C399.927 132.128 392.922 130.28 385.439 132.121C373.103 135.156 367.482 144.583 364.048 155.612C359.018 171.769 362.789 181.59 376.962 190.865C379.465 192.503 381.952 194.164 384.466 195.785C387.399 197.676 390.093 199.849 392.413 202.46C397.618 208.316 398.437 215.112 394.864 222.07C392.851 225.988 389.697 228.921 386.607 231.925C384.208 234.259 381.743 236.542 379.939 239.405C374.528 247.991 375.534 256.963 378.42 266.012C384.398 284.755 406.194 297.045 424.683 292.027C435.412 289.115 442.712 282.048 448.001 271.917Z" fill="#3E61FF"/>
</svg>
