<svg width="1600" height="1000" viewBox="0 0 1600 1000" fill="none" xmlns="http://www.w3.org/2000/svg">
  <defs>
    <linearGradient id="bg" x1="800" y1="0" x2="800" y2="1000" gradientUnits="userSpaceOnUse">
      <stop stop-color="#0B1327"/>
      <stop offset="1" stop-color="#040A16"/>
    </linearGradient>
    <linearGradient id="card" x1="800" y1="140" x2="800" y2="860" gradientUnits="userSpaceOnUse">
      <stop stop-color="#111B35"/>
      <stop offset="1" stop-color="#0A1326"/>
    </linearGradient>
    <linearGradient id="lineA" x1="0" y1="0" x2="0" y2="1">
      <stop stop-color="#60A5FA" stop-opacity="0.95"/>
      <stop offset="1" stop-color="#1D4ED8" stop-opacity="0.35"/>
    </linearGradient>
  </defs>

  <rect width="1600" height="1000" fill="url(#bg)"/>
  <circle cx="800" cy="120" r="420" fill="#2563EB" fill-opacity="0.14"/>
  <circle cx="1220" cy="740" r="280" fill="#1D4ED8" fill-opacity="0.12"/>

  <rect x="180" y="120" width="1240" height="760" rx="36" fill="url(#card)" stroke="#334155"/>
  <rect x="180" y="120" width="1240" height="80" rx="36" fill="#0E1A34"/>
  <rect x="228" y="154" width="280" height="14" rx="7" fill="#334155"/>
  <rect x="1268" y="146" width="100" height="28" rx="14" fill="#1E3A8A"/>

  <rect x="232" y="240" width="300" height="588" rx="22" fill="#0A1328" stroke="#1E293B"/>
  <rect x="272" y="290" width="220" height="14" rx="7" fill="#334155"/>
  <rect x="272" y="332" width="220" height="14" rx="7" fill="#334155"/>
  <rect x="272" y="374" width="220" height="14" rx="7" fill="#334155"/>
  <rect x="272" y="416" width="220" height="14" rx="7" fill="#334155"/>

  <rect x="572" y="240" width="808" height="132" rx="18" fill="#142347" stroke="#334155"/>
  <rect x="604" y="278" width="420" height="18" rx="9" fill="#94A3B8" fill-opacity="0.35"/>
  <rect x="604" y="312" width="320" height="12" rx="6" fill="#64748B"/>
  <rect x="1170" y="276" width="160" height="38" rx="10" fill="#1D4ED8"/>

  <rect x="572" y="394" width="390" height="200" rx="18" fill="#132543" stroke="#334155"/>
  <rect x="990" y="394" width="390" height="200" rx="18" fill="#132543" stroke="#334155"/>
  <rect x="572" y="618" width="808" height="210" rx="18" fill="#111F3B" stroke="#334155"/>

  <polyline points="618,545 700,520 782,530 864,472 946,498" stroke="url(#lineA)" stroke-width="10" stroke-linecap="round" stroke-linejoin="round" fill="none"/>
  <polyline points="1036,548 1110,522 1184,530 1258,486 1332,498" stroke="url(#lineA)" stroke-width="10" stroke-linecap="round" stroke-linejoin="round" fill="none"/>

  <rect x="622" y="660" width="716" height="20" rx="10" fill="#334155"/>
  <rect x="622" y="700" width="716" height="20" rx="10" fill="#334155"/>
  <rect x="622" y="740" width="560" height="20" rx="10" fill="#334155"/>

  <rect x="620" y="900" width="360" height="22" rx="11" fill="#1E3A8A"/>
</svg>
