<svg width="636" height="432" viewBox="0 0 636 432" fill="none" xmlns="http://www.w3.org/2000/svg">
<rect x="219.359" y="171.531" width="313.075" height="258.469" rx="25.4828" fill="white"/>
<path fill-rule="evenodd" clip-rule="evenodd" d="M238.586 18.8789C285.42 -3.91127 333.229 -6.06734 382.016 12.4092C424.55 30.8577 455.285 61.2332 474.221 103.535C474.94 104.973 474.94 106.411 474.221 107.849C454.052 127.837 434.101 147.967 414.368 168.24C413.783 168.305 413.424 168.664 413.29 169.318C445.275 170.397 477.268 170.757 509.269 170.397C569.566 175.863 610.007 207.137 630.591 264.22C644.1 324 626.667 372.349 578.288 409.267C562.208 419.902 544.594 426.732 525.445 429.757C455.553 430.999 385.636 431.538 315.694 431.374C248.652 431.194 181.61 431.015 114.569 430.835C64.0048 422.672 28.5966 395.173 8.34394 348.336C-11.9465 284.059 4.76907 231.755 58.4904 191.426C78.4248 178.251 100.353 171.242 124.274 170.397H147.999V156.378C154.856 95.003 185.051 49.1695 238.586 18.8789ZM411.116 171.477C373.769 208.285 336.563 245.311 299.5 282.554C296.415 287.286 293.899 292.318 291.951 297.651C289.374 318.926 297.821 333.844 317.294 342.405C348.514 343.987 379.788 344.527 411.116 344.023C410.936 372.784 411.116 401.541 411.655 430.297C447.258 394.515 483.025 358.927 518.958 323.533C524.405 317.676 528.18 310.845 530.281 303.043C532.284 277.925 520.961 262.827 496.312 257.75H411.116V171.477Z" fill="url(#paint0_linear_1556_65)"/>
<defs>
<linearGradient id="paint0_linear_1556_65" x1="0" y1="215.701" x2="635.014" y2="215.701" gradientUnits="userSpaceOnUse">
<stop stop-color="#007BFF"/>
<stop offset="1" stop-color="#0052F4"/>
</linearGradient>
</defs>
</svg>
