<svg width="870" height="146" viewBox="0 0 870 146" fill="none" xmlns="http://www.w3.org/2000/svg">
<path d="M205.501 114V36.8485H252.649V51.4215H220.074V68.1377H246.22V82.7108H220.074V114H205.501ZM280.646 115.714C276.11 115.714 272.413 114.947 269.555 113.411C266.698 111.875 264.465 109.928 262.858 107.571C261.286 105.213 260.161 102.767 259.483 100.231C258.804 97.6589 258.393 95.3193 258.25 93.2119C258.107 91.1046 258.036 89.5687 258.036 88.6043V56.1363H272.823V83.4608C272.823 84.7824 272.895 86.479 273.038 88.5507C273.181 90.5866 273.627 92.6405 274.377 94.7121C275.127 96.7838 276.342 98.5161 278.02 99.9091C279.735 101.302 282.146 101.999 285.253 101.999C286.504 101.999 287.843 101.802 289.272 101.409C290.7 101.016 292.04 100.266 293.29 99.159C294.54 98.0161 295.558 96.3552 296.344 94.1763C297.165 91.9618 297.576 89.0686 297.576 85.4968L305.934 89.4615C305.934 94.0335 305.006 98.3197 303.148 102.32C301.291 106.321 298.487 109.553 294.737 112.018C291.022 114.482 286.325 115.714 280.646 115.714ZM299.398 114V94.8193H297.576V56.1363H312.256V114H299.398ZM363.449 114V86.6755C363.449 85.3539 363.377 83.6752 363.235 81.6392C363.092 79.5675 362.645 77.4959 361.895 75.4242C361.145 73.3526 359.913 71.6202 358.198 70.2272C356.52 68.8342 354.126 68.1377 351.019 68.1377C349.769 68.1377 348.429 68.3341 347.001 68.727C345.572 69.1199 344.232 69.8879 342.982 71.0309C341.732 72.1381 340.696 73.7812 339.875 75.96C339.089 78.1388 338.696 81.032 338.696 84.6395L330.338 80.6748C330.338 76.1029 331.267 71.8167 333.124 67.8162C334.981 63.8158 337.767 60.5833 341.482 58.1187C345.233 55.6541 349.947 54.4219 355.627 54.4219C360.163 54.4219 363.86 55.1898 366.717 56.7257C369.575 58.2616 371.789 60.2082 373.361 62.5656C374.968 64.923 376.111 67.3876 376.79 69.9593C377.468 72.4953 377.879 74.817 378.022 76.9244C378.165 79.0318 378.236 80.5677 378.236 81.5321V114H363.449ZM323.909 114V56.1363H336.874V75.3171H338.696V114H323.909ZM388.924 114V36.8485H421.499C422.249 36.8485 423.249 36.8842 424.5 36.9556C425.785 36.9913 426.928 37.0985 427.929 37.2771C432.536 37.9914 436.304 39.5095 439.233 41.8312C442.198 44.1528 444.377 47.0817 445.77 50.6179C447.163 54.1183 447.859 58.0294 447.859 62.3513C447.859 66.6732 447.145 70.6023 445.716 74.1384C444.323 77.6388 442.144 80.5498 439.18 82.8715C436.251 85.1932 432.5 86.7112 427.929 87.4256C426.928 87.5685 425.785 87.6756 424.5 87.747C423.214 87.8185 422.214 87.8542 421.499 87.8542H403.497V114H388.924ZM403.497 74.2455H420.856C421.606 74.2455 422.428 74.2098 423.321 74.1384C424.214 74.0669 425.035 73.9241 425.785 73.7097C427.75 73.174 429.268 72.281 430.339 71.0309C431.411 69.745 432.143 68.3341 432.536 66.7983C432.965 65.2266 433.179 63.7443 433.179 62.3513C433.179 60.9583 432.965 59.4939 432.536 57.958C432.143 56.3864 431.411 54.9755 430.339 53.7254C429.268 52.4395 427.75 51.5287 425.785 50.9929C425.035 50.7786 424.214 50.6357 423.321 50.5643C422.428 50.4928 421.606 50.4571 420.856 50.4571H403.497V74.2455ZM470.429 115.607C466.286 115.607 462.767 114.822 459.874 113.25C457.017 111.643 454.838 109.517 453.338 106.874C451.873 104.195 451.141 101.249 451.141 98.0339C451.141 95.355 451.552 92.9083 452.373 90.6938C453.195 88.4793 454.516 86.5326 456.338 84.8539C458.195 83.1394 460.678 81.7106 463.785 80.5677C465.928 79.7819 468.482 79.0854 471.447 78.4781C474.411 77.8709 477.769 77.2994 481.519 76.7637C485.27 76.1922 489.395 75.5671 493.896 74.8885L488.645 77.7816C488.645 74.3527 487.824 71.8345 486.181 70.2272C484.538 68.6199 481.787 67.8162 477.93 67.8162C475.787 67.8162 473.554 68.3341 471.232 69.37C468.911 70.4058 467.286 72.2453 466.357 74.8885L453.177 70.7094C454.641 65.9232 457.392 62.0299 461.428 59.0295C465.464 56.0292 470.965 54.529 477.93 54.529C483.037 54.529 487.574 55.3148 491.538 56.8864C495.503 58.458 498.503 61.1726 500.539 65.0302C501.682 67.1733 502.361 69.3164 502.575 71.4595C502.79 73.6026 502.897 75.9957 502.897 78.6389V114H490.145V102.106L491.967 104.57C489.145 108.464 486.091 111.285 482.805 113.036C479.555 114.75 475.429 115.607 470.429 115.607ZM473.536 104.142C476.215 104.142 478.465 103.677 480.287 102.749C482.144 101.784 483.609 100.695 484.68 99.4805C485.788 98.2661 486.538 97.2481 486.931 96.4266C487.681 94.855 488.109 93.0334 488.217 90.9617C488.359 88.8543 488.431 87.1041 488.431 85.7111L492.717 86.7826C488.395 87.497 484.895 88.1042 482.216 88.6043C479.537 89.0686 477.376 89.4972 475.733 89.8901C474.09 90.283 472.643 90.7117 471.393 91.176C469.964 91.7475 468.804 92.3726 467.911 93.0512C467.053 93.6941 466.411 94.4085 465.982 95.1943C465.589 95.9801 465.393 96.8552 465.393 97.8196C465.393 99.1412 465.714 100.284 466.357 101.249C467.036 102.177 467.982 102.892 469.197 103.392C470.411 103.892 471.858 104.142 473.536 104.142ZM517.763 139.717L528.907 109.071L529.121 118.072L503.94 56.1363H519.049L535.979 99.9627H532.55L549.374 56.1363H563.947L531.264 139.717H517.763Z" fill="white"/>
<path d="M618.704 115.607C610.988 115.607 604.416 113.929 598.987 110.571C593.558 107.178 589.397 102.463 586.504 96.4266C583.646 90.3902 582.217 83.3894 582.217 75.4242C582.217 67.459 583.646 60.4583 586.504 54.4219C589.397 48.3855 593.558 43.6885 598.987 40.331C604.416 36.9377 610.988 35.2411 618.704 35.2411C627.597 35.2411 634.955 37.4914 640.778 41.9919C646.635 46.4924 650.707 52.5467 652.993 60.1547L641.635 63.2086C640.135 57.8151 637.456 53.5825 633.598 50.5107C629.776 47.4389 624.811 45.903 618.704 45.903C613.239 45.903 608.685 47.1353 605.041 49.5999C601.398 52.0645 598.648 55.5113 596.79 59.9403C594.969 64.3694 594.058 69.5307 594.058 75.4242C594.022 81.3177 594.915 86.479 596.737 90.9081C598.594 95.3372 601.345 98.784 604.988 101.249C608.667 103.713 613.239 104.945 618.704 104.945C624.811 104.945 629.776 103.41 633.598 100.338C637.456 97.2303 640.135 92.9976 641.635 87.6399L652.993 90.6938C650.707 98.3018 646.635 104.356 640.778 108.857C634.955 113.357 627.597 115.607 618.704 115.607ZM662.634 114V35.2411H673.831V114H662.634ZM711.834 115.607C706.047 115.607 701.029 114.304 696.779 111.696C692.528 109.089 689.242 105.499 686.92 100.927C684.634 96.3194 683.491 91.0153 683.491 85.0146C683.491 78.9782 684.67 73.674 687.027 69.1021C689.385 64.4944 692.689 60.9226 696.939 58.3866C701.19 55.8149 706.155 54.529 711.834 54.529C717.62 54.529 722.639 55.8327 726.889 58.4402C731.14 61.0476 734.426 64.6373 736.747 69.2092C739.069 73.7812 740.23 79.0496 740.23 85.0146C740.23 91.051 739.051 96.373 736.694 100.981C734.372 105.553 731.086 109.142 726.836 111.75C722.585 114.321 717.584 115.607 711.834 115.607ZM711.834 105.053C717.37 105.053 721.496 103.195 724.21 99.4805C726.961 95.7301 728.336 90.9081 728.336 85.0146C728.336 78.9782 726.943 74.1562 724.157 70.5487C721.406 66.9054 717.299 65.0838 711.834 65.0838C708.083 65.0838 704.994 65.941 702.565 67.6555C700.136 69.3343 698.332 71.6738 697.154 74.6741C695.975 77.6388 695.386 81.0856 695.386 85.0146C695.386 91.0867 696.779 95.9444 699.565 99.5877C702.351 103.231 706.44 105.053 711.834 105.053ZM770.595 115.554C766.594 115.554 763.237 114.911 760.522 113.625C757.808 112.339 755.593 110.66 753.879 108.589C752.2 106.481 750.914 104.195 750.021 101.731C749.128 99.2662 748.521 96.8552 748.2 94.4978C747.878 92.1404 747.717 90.0687 747.717 88.2828V56.1363H759.076V84.586C759.076 86.8362 759.254 89.1579 759.612 91.551C760.004 93.9085 760.719 96.1051 761.755 98.1411C762.826 100.177 764.308 101.82 766.202 103.07C768.13 104.32 770.631 104.945 773.702 104.945C775.703 104.945 777.596 104.624 779.382 103.981C781.168 103.302 782.721 102.231 784.043 100.766C785.4 99.3019 786.454 97.3731 787.204 94.98C787.99 92.5869 788.383 89.6758 788.383 86.2469L795.348 88.8722C795.348 94.1228 794.365 98.7661 792.401 102.802C790.436 106.803 787.615 109.928 783.936 112.178C780.257 114.429 775.81 115.554 770.595 115.554ZM789.722 114V97.2838H788.383V56.1363H799.687V114H789.722ZM834.484 115.607C829.091 115.607 824.43 114.268 820.501 111.589C816.607 108.91 813.589 105.267 811.446 100.659C809.339 96.0158 808.285 90.801 808.285 85.0146C808.285 79.1925 809.357 73.9955 811.5 69.4236C813.643 64.8159 816.679 61.1905 820.608 58.5473C824.573 55.8685 829.269 54.529 834.699 54.529C840.164 54.529 844.753 55.8685 848.468 58.5473C852.218 61.1905 855.04 64.8159 856.933 69.4236C858.862 74.0312 859.826 79.2282 859.826 85.0146C859.826 90.801 858.862 95.998 856.933 100.606C855.005 105.213 852.165 108.874 848.414 111.589C844.664 114.268 840.021 115.607 834.484 115.607ZM836.038 105.481C839.717 105.481 842.717 104.606 845.039 102.856C847.361 101.106 849.057 98.6947 850.129 95.6229C851.201 92.5512 851.736 89.015 851.736 85.0146C851.736 81.0141 851.183 77.478 850.075 74.4063C849.004 71.3345 847.325 68.9414 845.039 67.2269C842.789 65.5124 839.914 64.6552 836.413 64.6552C832.698 64.6552 829.645 65.566 827.251 67.3876C824.858 69.2092 823.072 71.6559 821.894 74.7277C820.751 77.7995 820.179 81.2285 820.179 85.0146C820.179 88.8365 820.751 92.3011 821.894 95.4086C823.072 98.4804 824.823 100.927 827.144 102.749C829.502 104.57 832.466 105.481 836.038 105.481ZM851.736 114V72.3703H850.45V36.8485H861.702V114H851.736Z" fill="#7DC8FF"/>
<rect x="60" y="48" width="86" height="71" rx="7" fill="white"/>
<path d="M65.375 6.17275C78.2077 -0.0718691 91.3079 -0.66236 104.676 4.40029C116.33 9.45535 124.753 17.7789 129.941 29.37C130.138 29.7637 130.138 30.158 129.941 30.5517C124.415 36.0287 118.948 41.5445 113.541 47.0995C113.381 47.1172 113.282 47.216 113.245 47.3954C122.009 47.6909 130.776 47.7887 139.545 47.6903C156.067 49.188 167.148 57.7574 172.788 73.3983C176.49 89.7789 171.712 103.028 158.456 113.143C154.05 116.057 149.224 117.929 143.978 118.758C124.826 119.098 105.668 119.246 86.5029 119.201C68.1328 119.152 49.7627 119.102 31.3926 119.053C17.5378 116.816 7.83553 109.281 2.28614 96.4472C-3.27349 78.8348 1.30726 64.5037 16.0273 53.453C21.4896 49.843 27.4983 47.9217 34.0527 47.6903H40.5537V43.8485C42.4326 27.0315 50.7061 14.4726 65.375 6.17275ZM112.655 47.9892C102.422 58.0749 92.2268 68.2198 82.0713 78.4247C81.2259 79.7213 80.5366 81.1009 80.0029 82.5624C79.2969 88.3917 81.6117 92.4792 86.9473 94.8251C95.5018 95.2586 104.071 95.4064 112.655 95.2685C112.606 103.149 112.656 111.029 112.804 118.908C122.559 109.104 132.359 99.3523 142.205 89.6542C143.698 88.0494 144.732 86.1769 145.308 84.039C145.856 77.1566 142.754 73.02 136 71.6288H112.655V47.9892Z" fill="url(#paint0_linear_1544_1344)"/>
<defs>
<linearGradient id="paint0_linear_1544_1344" x1="0" y1="60.1045" x2="174" y2="60.1045" gradientUnits="userSpaceOnUse">
<stop stop-color="#007BFF"/>
<stop offset="1" stop-color="#0052F4"/>
</linearGradient>
</defs>
</svg>
